<?xml version="1.0" encoding="utf-8"?>
<svg version="1.1" xmlns:xlink="http://www.w3.org/1999/xlink" width="21px" height="21px" xmlns="http://www.w3.org/2000/svg">
  <g transform="matrix(1 0 0 1 -56 -65 )">
    <path d="M 17.0475852272727 9.6796875  C 17.1370738636364 9.76917613636364  17.1818181818182 9.88352272727273  17.1818181818182 10.0227272727273  L 17.1818181818182 10.9772727272727  C 17.1818181818182 11.1164772727273  17.1370738636364 11.2308238636364  17.0475852272727 11.3203125  C 16.9580965909091 11.4098011363636  16.84375 11.4545454545455  16.7045454545455 11.4545454545455  L 4.29545454545455 11.4545454545455  C 4.15625 11.4545454545455  4.04190340909091 11.4098011363636  3.95241477272727 11.3203125  C 3.86292613636364 11.2308238636364  3.81818181818182 11.1164772727273  3.81818181818182 10.9772727272727  L 3.81818181818182 10.0227272727273  C 3.81818181818182 9.88352272727273  3.86292613636364 9.76917613636364  3.95241477272727 9.6796875  C 4.04190340909091 9.59019886363636  4.15625 9.54545454545455  4.29545454545455 9.54545454545455  L 16.7045454545455 9.54545454545455  C 16.84375 9.54545454545455  16.9580965909091 9.59019886363636  17.0475852272727 9.6796875  Z M 18.3899147727273 18.3899147727273  C 18.8572443181818 17.9225852272727  19.0909090909091 17.3607954545455  19 16.7045454545455  L 19 4.29545454545455  C 19.0909090909091 3.63920454545455  18.8572443181818 3.07741477272727  18.3899147727273 2.61008522727273  C 17.9225852272727 2.14275568181818  17.3607954545455 1.90909090909091  16.7045454545455 2  L 4.29545454545455 2  C 3.63920454545455 1.90909090909091  3.07741477272727 2.14275568181818  2.61008522727273 2.61008522727273  C 2.14275568181818 3.07741477272727  1.90909090909091 3.63920454545455  2 4.29545454545455  L 2 16.7045454545455  C 1.90909090909091 17.3607954545455  2.14275568181818 17.9225852272727  2.61008522727273 18.3899147727273  C 3.07741477272727 18.8572443181818  3.63920454545455 19.0909090909091  4.29545454545455 19  L 16.7045454545455 19  C 17.3607954545455 19.0909090909091  17.9225852272727 18.8572443181818  18.3899147727273 18.3899147727273  Z M 19.7397017045455 1.26029829545455  C 20.5799005681818 2.10049715909091  21 3.11221590909091  21 4.29545454545455  L 21 16.7045454545455  C 21 17.8877840909091  20.5799005681818 18.8995028409091  19.7397017045455 19.7397017045455  C 18.8995028409091 20.5799005681818  17.8877840909091 21  16.7045454545455 21  L 4.29545454545455 21  C 3.11221590909091 21  2.10049715909091 20.5799005681818  1.26029829545455 19.7397017045455  C 0.420099431818182 18.8995028409091  0 17.8877840909091  0 16.7045454545455  L 0 4.29545454545455  C 0 3.11221590909091  0.420099431818182 2.10049715909091  1.26029829545455 1.26029829545455  C 2.10049715909091 0.42009943181818  3.11221590909091 0  4.29545454545455 0  L 16.7045454545455 0  C 17.8877840909091 0  18.8995028409091 0.42009943181818  19.7397017045455 1.26029829545455  Z " fill-rule="nonzero" fill="#000000" stroke="none" transform="matrix(1 0 0 1 56 65 )" />
  </g>
</svg>