<?xml version="1.0" encoding="utf-8"?>
<svg version="1.1" xmlns:xlink="http://www.w3.org/1999/xlink" width="22px" height="22px" xmlns="http://www.w3.org/2000/svg">
  <g transform="matrix(1 0 0 1 -46 -4 )">
    <path d="M 57 6  C 62.04 6  66 9.96  66 15  C 66 20.04  62.04 24  57 24  C 51.96 24  48 20.04  48 15  C 48 9.96  51.96 6  57 6  Z " fill-rule="nonzero" fill="#ffffff" stroke="none" fill-opacity="0" />
    <path d="M 57 5.5  C 62.32 5.5  66.5 9.68  66.5 15  C 66.5 20.32  62.32 24.5  57 24.5  C 51.68 24.5  47.5 20.32  47.5 15  C 47.5 9.68  51.68 5.5  57 5.5  Z " stroke-width="3" stroke="#000000" fill="none" />
  </g>
</svg>