<?xml version="1.0" encoding="utf-8"?>
<svg version="1.1" xmlns:xlink="http://www.w3.org/1999/xlink" width="39px" height="33px" xmlns="http://www.w3.org/2000/svg">
  <g transform="matrix(1 0 0 1 -164 -243 )">
    <path d="M 28.0546875 11.5546875  C 28.3515625 11.2578125  28.5 10.90625  28.5 10.5  C 28.5 10.09375  28.3515625 9.74218749999999  28.0546875 9.4453125  C 27.7578125 9.1484375  27.40625 9  27 9  L 24 9  L 24 6  C 24 5.59375  23.8515625 5.24218749999999  23.5546875 4.9453125  C 23.2578125 4.6484375  22.90625 4.5  22.5 4.5  C 22.09375 4.5  21.7421875 4.6484375  21.4453125 4.9453125  C 21.1484375 5.24218749999999  21 5.59375  21 6  L 21 9  L 18 9  C 17.59375 9  17.2421875 9.1484375  16.9453125 9.4453125  C 16.6484375 9.74218749999999  16.5 10.09375  16.5 10.5  C 16.5 10.90625  16.6484375 11.2578125  16.9453125 11.5546875  C 17.2421875 11.8515625  17.59375 12  18 12  L 21 12  L 21 15  C 21 15.40625  21.1484375 15.7578125  21.4453125 16.0546875  C 21.7421875 16.3515625  22.09375 16.5  22.5 16.5  C 22.90625 16.5  23.2578125 16.3515625  23.5546875 16.0546875  C 23.8515625 15.7578125  24 15.40625  24 15  L 24 12  L 27 12  C 27.40625 12  27.7578125 11.8515625  28.0546875 11.5546875  Z M 14.12109375 27.87890625  C 14.70703125 28.46484375  15 29.171875  15 30  C 15 30.828125  14.70703125 31.53515625  14.12109375 32.12109375  C 13.53515625 32.70703125  12.828125 33  12 33  C 11.171875 33  10.46484375 32.70703125  9.87890625 32.12109375  C 9.29296875 31.53515625  9 30.828125  9 30  C 9 29.171875  9.29296875 28.46484375  9.87890625 27.87890625  C 10.46484375 27.29296875  11.171875 27  12 27  C 12.828125 27  13.53515625 27.29296875  14.12109375 27.87890625  Z M 35.12109375 27.87890625  C 35.70703125 28.46484375  36 29.171875  36 30  C 36 30.828125  35.70703125 31.53515625  35.12109375 32.12109375  C 34.53515625 32.70703125  33.828125 33  33 33  C 32.171875 33  31.46484375 32.70703125  30.87890625 32.12109375  C 30.29296875 31.53515625  30 30.828125  30 30  C 30 29.171875  30.29296875 28.46484375  30.87890625 27.87890625  C 31.46484375 27.29296875  32.171875 27  33 27  C 33.828125 27  34.53515625 27.29296875  35.12109375 27.87890625  Z M 38.5546875 3.4453125  C 38.8515625 3.7421875  39 4.09375  39 4.5  L 39 16.5  C 39 16.875  38.875 17.20703125  38.625 17.49609375  C 38.375 17.78515625  38.0546875 17.953125  37.6640625 18  L 13.1953125 20.859375  C 13.2109375 20.96875  13.24609375 21.13671875  13.30078125 21.36328125  C 13.35546875 21.58984375  13.40234375 21.796875  13.44140625 21.984375  C 13.48046875 22.171875  13.5 22.34375  13.5 22.5  C 13.5 22.75  13.3125 23.25  12.9375 24  L 34.5 24  C 34.90625 24  35.2578125 24.1484375  35.5546875 24.4453125  C 35.8515625 24.7421875  36 25.09375  36 25.5  C 36 25.90625  35.8515625 26.2578125  35.5546875 26.5546875  C 35.2578125 26.8515625  34.90625 27  34.5 27  L 10.5 27  C 10.09375 27  9.7421875 26.8515625  9.4453125 26.5546875  C 9.1484375 26.2578125  9 25.90625  9 25.5  C 9 25.28125  9.0859375 24.97265625  9.2578125 24.57421875  C 9.4296875 24.17578125  9.66015625 23.7109375  9.94921875 23.1796875  C 10.23828125 22.6484375  10.3984375 22.3515625  10.4296875 22.2890625  L 6.28125 3  L 1.5 3  C 1.09375 3  0.7421875 2.8515625  0.4453125 2.5546875  C 0.1484375 2.2578125  0 1.90625  0 1.5  C 0 1.09375  0.1484375 0.742187499999995  0.4453125 0.445312500000002  C 0.7421875 0.148437499999997  1.09375 0  1.5 0  L 7.5 0  C 7.75 0  7.97265625 0.0507812499999978  8.16796875 0.152343750000001  C 8.36328125 0.25390625  8.51953125 0.375  8.63671875 0.515625  C 8.75390625 0.65625  8.85546875 0.847656249999995  8.94140625 1.08984375  C 9.02734375 1.33203125  9.0859375 1.5390625  9.1171875 1.7109375  C 9.1484375 1.8828125  9.19140625 2.11328125  9.24609375 2.40234375  C 9.30078125 2.69140625  9.3359375 2.890625  9.3515625 3  L 37.5 3  C 37.90625 3  38.2578125 3.1484375  38.5546875 3.4453125  Z " fill-rule="nonzero" fill="#000000" stroke="none" transform="matrix(1 0 0 1 164 243 )" />
  </g>
</svg>