<?xml version="1.0" encoding="utf-8"?>
<svg version="1.1" xmlns:xlink="http://www.w3.org/1999/xlink" width="42px" height="35px" xmlns="http://www.w3.org/2000/svg">
  <g transform="matrix(1 0 0 1 -290 -243 )">
    <path d="M 14.12109375 16.9883720930233  C 14.70703125 16.406976744186  15 15.7054263565891  15 14.8837209302326  C 15 14.062015503876  14.70703125 13.3604651162791  14.12109375 12.7790697674419  C 13.53515625 12.1976744186047  12.828125 11.906976744186  12 11.906976744186  C 11.171875 11.906976744186  10.46484375 12.1976744186047  9.87890625 12.7790697674419  C 9.29296875 13.3604651162791  9 14.062015503876  9 14.8837209302326  C 9 15.7054263565891  9.29296875 16.406976744186  9.87890625 16.9883720930233  C 10.46484375 17.5697674418605  11.171875 17.8604651162791  12 17.8604651162791  C 12.828125 17.8604651162791  13.53515625 17.5697674418605  14.12109375 16.9883720930233  Z M 23.12109375 16.9883720930233  C 23.70703125 16.406976744186  24 15.7054263565891  24 14.8837209302326  C 24 14.062015503876  23.70703125 13.3604651162791  23.12109375 12.7790697674419  C 22.53515625 12.1976744186047  21.828125 11.906976744186  21 11.906976744186  C 20.171875 11.906976744186  19.46484375 12.1976744186047  18.87890625 12.7790697674419  C 18.29296875 13.3604651162791  18 14.062015503876  18 14.8837209302326  C 18 15.7054263565891  18.29296875 16.406976744186  18.87890625 16.9883720930233  C 19.46484375 17.5697674418605  20.171875 17.8604651162791  21 17.8604651162791  C 21.828125 17.8604651162791  22.53515625 17.5697674418605  23.12109375 16.9883720930233  Z M 32.12109375 16.9883720930233  C 32.70703125 16.406976744186  33 15.7054263565891  33 14.8837209302326  C 33 14.062015503876  32.70703125 13.3604651162791  32.12109375 12.7790697674419  C 31.53515625 12.1976744186047  30.828125 11.906976744186  30 11.906976744186  C 29.171875 11.906976744186  28.46484375 12.1976744186047  27.87890625 12.7790697674419  C 27.29296875 13.3604651162791  27 14.062015503876  27 14.8837209302326  C 27 15.7054263565891  27.29296875 16.406976744186  27.87890625 16.9883720930233  C 28.46484375 17.5697674418605  29.171875 17.8604651162791  30 17.8604651162791  C 30.828125 17.8604651162791  31.53515625 17.5697674418605  32.12109375 16.9883720930233  Z M 39.1875 7.40697674418605  C 41.0625 9.6937984496124  42 12.1860465116279  42 14.8837209302326  C 42 17.5813953488372  41.0625 20.0736434108527  39.1875 22.3604651162791  C 37.3125 24.6472868217054  34.765625 26.453488372093  31.546875 27.7790697674419  C 28.328125 29.1046511627907  24.8125 29.7674418604651  21 29.7674418604651  C 19.28125 29.7674418604651  17.6328125 29.6279069767442  16.0546875 29.3488372093023  C 13.3515625 32.031007751938  9.953125 33.8062015503876  5.859375 34.6744186046512  C 5.046875 34.8294573643411  4.375 34.9302325581395  3.84375 34.9767441860465  C 3.65625 34.9922480620155  3.484375 34.9457364341085  3.328125 34.8372093023256  C 3.171875 34.7286821705426  3.0703125 34.5891472868217  3.0234375 34.4186046511628  C 2.9609375 34.1860465116279  3.1171875 33.8992248062016  3.4921875 33.5581395348837  C 3.5703125 33.4806201550388  3.75390625 33.3139534883721  4.04296875 33.0581395348837  C 4.33203125 32.8023255813954  4.53125 32.6201550387597  4.640625 32.5116279069767  C 4.75 32.4031007751938  4.93359375 32.2054263565891  5.19140625 31.9186046511628  C 5.44921875 31.6317829457364  5.63671875 31.3875968992248  5.75390625 31.1860465116279  C 5.87109375 30.984496124031  6.03125 30.6976744186046  6.234375 30.3255813953488  C 6.4375 29.953488372093  6.59375 29.5813953488372  6.703125 29.2093023255814  C 6.8125 28.8372093023256  6.92578125 28.3914728682171  7.04296875 27.8720930232558  C 7.16015625 27.3527131782946  7.2578125 26.7906976744186  7.3359375 26.1860465116279  C 5.0546875 24.7906976744186  3.26171875 23.1124031007752  1.95703125 21.1511627906977  C 0.65234375 19.1899224806202  0 17.1007751937984  0 14.8837209302326  C 0 12.1860465116279  0.9375 9.6937984496124  2.8125 7.40697674418605  C 4.6875 5.12015503875968  7.234375 3.31395348837209  10.453125 1.98837209302326  C 13.671875 0.66279069767442  17.1875 0  21 0  C 24.8125 0  28.328125 0.66279069767442  31.546875 1.98837209302326  C 34.765625 3.31395348837209  37.3125 5.12015503875968  39.1875 7.40697674418605  Z " fill-rule="nonzero" fill="#000000" stroke="none" transform="matrix(1 0 0 1 290 243 )" />
  </g>
</svg>