<?xml version="1.0" encoding="utf-8"?>
<svg version="1.1" xmlns:xlink="http://www.w3.org/1999/xlink" width="21px" height="23px" xmlns="http://www.w3.org/2000/svg">
  <g transform="matrix(1 0 0 1 -24 -532 )">
    <path d="M 12.0081129807692 5.90401785714286  C 12.6517427884615 6.55431547619047  12.9735576923077 7.34151785714286  12.9735576923077 8.265625  C 12.9735576923077 9.18117559523809  12.6517427884615 9.96409970238095  12.0081129807692 10.6143973214286  C 11.3644831730769 11.2646949404762  10.5925480769231 11.58984375  9.69230769230769 11.58984375  C 8.79206730769231 11.58984375  8.02013221153846 11.2646949404762  7.37650240384615 10.6143973214286  C 6.73287259615385 9.96409970238095  6.41105769230769 9.18117559523809  6.41105769230769 8.265625  C 6.41105769230769 7.34151785714286  6.73287259615385 6.55431547619047  7.37650240384615 5.90401785714286  C 8.02013221153846 5.25372023809524  8.79206730769231 4.92857142857143  9.69230769230769 4.92857142857143  C 10.5925480769231 4.92857142857143  11.3644831730769 5.25372023809524  12.0081129807692 5.90401785714286  Z M 11.9639423076923 11.3395647321429  C 12.1742788461538 11.2069382440476  12.3088942307692 11.1235119047619  12.3677884615385 11.0892857142857  C 12.7548076923077 11.0892857142857  13.1018629807692 11.1620163690476  13.4089543269231 11.3074776785714  C 13.7160456730769 11.4529389880952  13.9684495192308 11.6561569940476  14.1661658653846 11.9171316964286  C 14.3638822115385 12.1781063988095  14.5300480769231 12.4647507440476  14.6646634615385 12.7770647321429  C 14.7992788461538 13.0893787202381  14.9002403846154 13.4359188988095  14.9675480769231 13.8166852678571  C 15.0348557692308 14.1974516369048  15.0832331730769 14.5504092261905  15.1126802884615 14.8755580357143  C 15.1421274038462 15.2007068452381  15.1568509615385 15.5386904761905  15.1568509615385 15.8895089285714  C 15.1568509615385 16.4627976190476  14.9906850961538 16.9697730654762  14.6583533653846 17.4104352678571  C 14.3260216346154 17.8510974702381  13.8822115384615 18.0714285714286  13.3269230769231 18.0714285714286  L 6.05769230769231 18.0714285714286  C 5.50240384615385 18.0714285714286  5.05859375 17.8510974702381  4.72626201923077 17.4104352678571  C 4.39393028846154 16.9697730654762  4.22776442307692 16.4627976190476  4.22776442307692 15.8895089285714  C 4.22776442307692 15.4787946428571  4.24669471153846 15.0787760416667  4.28455528846154 14.689453125  C 4.32241586538462 14.3001302083333  4.40024038461539 13.8787202380952  4.51802884615385 13.4252232142857  C 4.63581730769231 12.9717261904762  4.78936298076923 12.5802641369048  4.97866586538462 12.2508370535714  C 5.16796875 11.9214099702381  5.43299278846154 11.6454613095238  5.77373798076923 11.4229910714286  C 6.11448317307692 11.2005208333333  6.5078125 11.0892857142857  6.95372596153846 11.0892857142857  L 7.01682692307692 11.0892857142857  C 7.07572115384615 11.1235119047619  7.21033653846154 11.2069382440476  7.42067307692308 11.3395647321429  C 7.63100961538462 11.4721912202381  7.78034855769231 11.5620349702381  7.86868990384615 11.6090959821429  C 7.95703125 11.6561569940476  8.09585336538461 11.7288876488095  8.28515625 11.8272879464286  C 8.47445913461539 11.9256882440476  8.63010817307692 11.994140625  8.75210336538461 12.0326450892857  C 8.87409855769231 12.0711495535714  9.02133413461539 12.1096540178571  9.19381009615385 12.1481584821429  C 9.36628605769231 12.1866629464286  9.53245192307692 12.2059151785714  9.69230769230769 12.2059151785714  C 9.85216346153846 12.2059151785714  10.0183293269231 12.1866629464286  10.1908052884615 12.1481584821429  C 10.36328125 12.1096540178571  10.5105168269231 12.0711495535714  10.6325120192308 12.0326450892857  C 10.7545072115385 11.994140625  10.91015625 11.9256882440476  11.0994591346154 11.8272879464286  C 11.2887620192308 11.7288876488095  11.4275841346154 11.6561569940476  11.5159254807692 11.6090959821429  C 11.6042668269231 11.5620349702381  11.7536057692308 11.4721912202381  11.9639423076923 11.3395647321429  Z M 21 5.33928571428571  L 21 7.80357142857143  C 21 7.91480654761905  20.9600360576923 8.01106770833333  20.8801081730769 8.09235491071429  C 20.8001802884615 8.17364211309524  20.7055288461538 8.21428571428571  20.5961538461538 8.21428571428571  L 19.3846153846154 8.21428571428571  L 19.3846153846154 9.85714285714286  L 20.5961538461538 9.85714285714286  C 20.7055288461538 9.85714285714286  20.8001802884615 9.89778645833334  20.8801081730769 9.97907366071429  C 20.9600360576923 10.0603608630952  21 10.1566220238095  21 10.2678571428571  L 21 12.7321428571429  C 21 12.8433779761905  20.9600360576923 12.9396391369048  20.8801081730769 13.0209263392857  C 20.8001802884615 13.1022135416667  20.7055288461538 13.1428571428571  20.5961538461538 13.1428571428571  L 19.3846153846154 13.1428571428571  L 19.3846153846154 14.7857142857143  L 20.5961538461538 14.7857142857143  C 20.7055288461538 14.7857142857143  20.8001802884615 14.8263578869048  20.8801081730769 14.9076450892857  C 20.9600360576923 14.9889322916667  21 15.085193452381  21 15.1964285714286  L 21 17.6607142857143  C 21 17.7719494047619  20.9600360576923 17.8682105654762  20.8801081730769 17.9494977678571  C 20.8001802884615 18.0307849702381  20.7055288461538 18.0714285714286  20.5961538461538 18.0714285714286  L 19.3846153846154 18.0714285714286  L 19.3846153846154 20.9464285714286  C 19.3846153846154 21.5111607142857  19.1868990384615 21.9946056547619  18.7914663461538 22.3967633928571  C 18.3960336538462 22.7989211309524  17.9206730769231 23  17.3653846153846 23  L 2.01923076923077 23  C 1.46394230769231 23  0.988581730769231 22.7989211309524  0.593149038461538 22.3967633928571  C 0.197716346153846 21.9946056547619  0 21.5111607142857  0 20.9464285714286  L 0 2.05357142857143  C 0 1.48883928571429  0.197716346153846 1.00539434523809  0.593149038461538 0.603236607142858  C 0.988581730769231 0.201078869047619  1.46394230769231 0  2.01923076923077 0  L 17.3653846153846 0  C 17.9206730769231 0  18.3960336538462 0.201078869047619  18.7914663461538 0.603236607142858  C 19.1868990384615 1.00539434523809  19.3846153846154 1.48883928571429  19.3846153846154 2.05357142857143  L 19.3846153846154 4.92857142857143  L 20.5961538461538 4.92857142857143  C 20.7055288461538 4.92857142857143  20.8001802884615 4.9692150297619  20.8801081730769 5.05050223214286  C 20.9600360576923 5.13178943452381  21 5.22805059523809  21 5.33928571428571  Z M 17.6493389423077 21.2352120535714  C 17.7292668269231 21.1539248511905  17.7692307692308 21.0576636904762  17.7692307692308 20.9464285714286  L 17.7692307692308 2.05357142857143  C 17.7692307692308 1.94233630952381  17.7292668269231 1.84607514880952  17.6493389423077 1.76478794642857  C 17.5694110576923 1.68350074404762  17.4747596153846 1.64285714285714  17.3653846153846 2  L 2.01923076923077 2  C 1.90985576923077 1.64285714285714  1.81520432692308 1.68350074404762  1.73527644230769 1.76478794642857  C 1.65534855769231 1.84607514880952  1.61538461538462 1.94233630952381  2 2.05357142857143  L 2 20.9464285714286  C 1.61538461538462 21.0576636904762  1.65534855769231 21.1539248511905  1.73527644230769 21.2352120535714  C 1.81520432692308 21.3164992559524  1.90985576923077 21.3571428571429  2.01923076923077 21  L 17.3653846153846 21  C 17.4747596153846 21.3571428571429  17.5694110576923 21.3164992559524  17.6493389423077 21.2352120535714  Z " fill-rule="nonzero" fill="#000000" stroke="none" transform="matrix(1 0 0 1 24 532 )" />
  </g>
</svg>