<?xml version="1.0" encoding="utf-8"?>
<svg version="1.1" xmlns:xlink="http://www.w3.org/1999/xlink" width="18px" height="27px" xmlns="http://www.w3.org/2000/svg">
  <g transform="matrix(1 0 0 1 -24 -628 )">
    <path d="M 12.181640625 12.181640625  C 13.060546875 11.302734375  13.5 10.2421875  13.5 9  C 13.5 7.7578125  13.060546875 6.697265625  12.181640625 5.818359375  C 11.302734375 4.939453125  10.2421875 4.5  9 4.5  C 7.7578125 4.5  6.697265625 4.939453125  5.818359375 5.818359375  C 4.939453125 6.697265625  4.5 7.7578125  4.5 9  C 4.5 10.2421875  4.939453125 11.302734375  5.818359375 12.181640625  C 6.697265625 13.060546875  7.7578125 13.5  9 13.5  C 10.2421875 13.5  11.302734375 13.060546875  12.181640625 12.181640625  Z M 15.36328125 2.63671875  C 17.12109375 4.39453125  18 6.515625  18 9  C 18 10.27734375  17.806640625 11.326171875  17.419921875 12.146484375  L 11.021484375 25.751953125  C 10.833984375 26.138671875  10.5556640625 26.443359375  10.1865234375 26.666015625  C 9.8173828125 26.888671875  9.421875 27  9 27  C 8.578125 27  8.1826171875 26.888671875  7.8134765625 26.666015625  C 7.4443359375 26.443359375  7.171875 26.138671875  6.99609375 25.751953125  L 0.580078125 12.146484375  C 0.193359375 11.326171875  0 10.27734375  0 9  C 0 6.515625  0.87890625 4.39453125  2.63671875 2.63671875  C 4.39453125 0.878906250000001  6.515625 0  9 0  C 11.484375 0  13.60546875 0.878906250000001  15.36328125 2.63671875  Z " fill-rule="nonzero" fill="#000000" stroke="none" transform="matrix(1 0 0 1 24 628 )" />
  </g>
</svg>